{"glyphs":{"0":{"ha":651,"x_min":32,"x_max":619,"o":"m 325 813 q 468 778 411 813 q 558 685 525 743 q 606 554 592 628 q 619 401 619 481 q 607 258 619 331 q 561 125 594 185 q 471 27 528 65 q 325 -11 414 -11 q 184 25 240 -11 q 94 119 128 61 q 46 252 60 178 q 32 401 32 326 q 44 546 32 474 q 90 676 57 618 q 179 772 122 735 q 325 813 236 810 m 325 128 q 408 154 376 128 q 455 221 439 181 q 476 309 471 261 q 481 401 481 357 q 467 550 481 496 q 431 632 453 604 q 381 667 408 660 q 325 674 353 674 q 243 647 274 674 q 197 581 213 621 q 176 492 181 540 q 171 401 171 444 q 175 315 171 363 q 195 226 179 268 q 242 156 211 185 q 325 128 272 128 z "},"1":{"ha":357,"x_min":42,"x_max":315,"o":"m 315 800 l 315 0 l 176 0 l 176 549 q 42 508 115 508 l 42 647 q 94 661 69 647 q 136 697 118 675 q 165 745 154 718 q 176 800 175 772 l 315 800 z "},"2":{"ha":636,"x_min":31,"x_max":610,"o":"m 596 519 q 549 424 581 463 q 478 357 518 385 q 394 307 439 329 q 308 262 350 285 q 232 210 267 239 q 178 138 197 181 l 581 138 l 581 0 l 33 0 l 33 79 q 59 209 31 157 q 132 299 88 261 q 231 363 176 336 q 333 416 285 390 q 417 472 382 442 q 460 544 453 501 q 456 597 464 574 q 429 638 447 621 q 384 665 411 656 q 325 674 357 674 q 274 669 300 674 q 224 648 247 664 q 187 601 201 632 q 172 519 172 571 l 33 519 q 53 635 33 582 q 111 728 74 689 q 202 790 149 768 q 322 813 256 813 q 439 794 383 814 q 534 735 494 774 q 592 642 574 696 q 596 519 610 588 z "},"3":{"ha":624,"x_min":28,"x_max":596,"o":"m 517 421 q 551 388 536 408 q 576 342 567 367 q 591 292 586 318 q 596 240 596 265 q 574 133 596 181 q 512 53 551 86 q 419 2 472 19 q 303 -15 365 -15 q 194 6 244 -15 q 108 66 144 28 q 51 157 72 104 q 28 271 29 210 l 167 271 q 181 196 167 225 q 215 151 194 167 q 260 129 236 135 q 303 124 283 124 q 359 130 332 124 q 408 149 386 136 q 444 185 431 163 q 457 240 457 207 q 427 310 457 285 q 344 335 397 335 l 285 335 l 285 474 l 344 474 q 406 506 385 474 q 426 579 428 539 q 415 626 426 607 q 385 656 403 644 q 345 672 367 667 q 303 676 324 676 q 201 646 236 676 q 167 567 167 615 l 28 567 q 49 663 28 618 q 107 742 69 708 q 194 796 144 776 q 303 815 244 815 q 407 800 358 815 q 490 756 456 785 q 545 682 525 726 q 565 579 565 638 q 517 421 565 486 z "},"4":{"ha":614,"x_min":32,"x_max":582,"o":"m 582 276 l 582 138 l 539 138 l 539 0 l 400 0 l 400 138 l 32 138 l 32 276 l 297 800 l 453 800 l 188 276 l 400 276 l 400 526 l 539 526 l 539 276 l 582 276 l 582 276 z "},"5":{"ha":626,"x_min":31,"x_max":601,"o":"m 593 333 q 583 206 601 267 q 527 99 565 144 q 431 26 489 53 q 300 -1 372 -1 q 205 15 250 -1 q 124 60 160 31 q 65 132 89 90 q 31 225 40 174 l 168 246 q 213 166 175 194 q 304 138 251 138 q 372 151 342 138 q 422 190 401 165 q 450 247 442 214 q 454 317 458 279 q 429 388 449 363 q 387 424 410 413 q 341 437 364 435 q 307 439 318 439 q 271 434 290 439 q 234 419 251 429 q 204 394 217 410 q 188 357 192 379 l 49 357 l 49 800 l 551 800 l 551 661 l 188 661 l 188 551 q 240 569 211 561 q 299 578 269 576 q 494 517 414 582 q 593 333 575 451 z "},"6":{"ha":638,"x_min":26,"x_max":615,"o":"m 601 347 q 603 215 615 281 q 556 95 592 149 q 464 9 521 42 q 332 -24 407 -24 q 182 15 242 -24 q 88 116 122 54 q 40 256 53 178 q 28 411 26 333 q 97 685 33 589 q 178 767 129 735 q 290 808 226 799 q 400 808 346 817 q 496 774 454 800 q 564 706 538 749 q 592 603 590 663 l 453 603 q 439 642 453 628 q 404 665 425 657 q 359 674 383 672 q 314 671 335 675 q 271 658 292 667 q 232 632 250 650 q 199 584 214 614 q 176 507 185 554 q 294 555 228 544 q 424 546 361 565 q 535 477 486 526 q 601 347 585 428 m 332 128 q 397 144 367 128 q 445 186 426 160 q 471 248 464 213 q 469 321 478 283 q 428 393 458 367 q 362 427 399 419 q 287 424 325 435 q 222 387 249 414 q 184 317 194 360 q 192 217 174 274 q 219 170 203 188 q 255 144 236 153 q 294 131 274 135 q 332 128 314 128 z "},"7":{"ha":525,"x_min":26,"x_max":497,"o":"m 497 661 q 385 455 432 549 q 309 281 339 361 q 265 131 279 200 q 251 0 251 63 l 113 0 q 125 140 113 68 q 165 291 138 211 q 235 463 193 371 q 339 661 278 554 l 26 661 l 26 800 l 497 800 l 497 661 z "},"8":{"ha":607,"x_min":26,"x_max":579,"o":"m 482 433 q 522 396 504 418 q 553 347 540 374 q 572 292 565 321 q 579 235 579 263 q 556 133 579 181 q 495 51 533 86 q 407 -3 457 17 q 303 -24 357 -24 q 202 -5 251 -24 q 114 49 153 14 q 51 131 75 83 q 26 235 26 178 q 52 342 26 288 q 124 433 78 396 q 81 502 96 464 q 65 583 65 540 q 84 673 65 631 q 135 747 103 715 q 210 796 167 778 q 303 814 254 814 q 394 796 351 814 q 470 747 438 778 q 522 673 503 715 q 540 583 540 631 q 525 502 540 540 q 482 433 510 464 m 204 583 q 233 520 204 547 q 303 493 263 493 q 372 520 343 493 q 401 583 401 547 q 372 648 401 621 q 303 675 343 675 q 233 648 263 675 q 204 583 204 621 m 303 115 q 401 151 361 115 q 440 235 440 186 q 430 280 440 258 q 401 318 419 301 q 357 344 382 335 q 303 354 332 354 q 249 344 274 354 q 205 318 224 335 q 176 280 186 301 q 165 235 165 258 q 205 151 165 186 q 303 115 244 115 z "},"9":{"ha":653,"x_min":28,"x_max":619,"o":"m 42 442 q 40 574 28 508 q 87 694 51 640 q 179 780 122 747 q 311 813 236 813 q 488 755 408 813 q 597 572 567 697 q 615 460 610 522 q 615 335 619 399 q 593 211 610 271 q 546 104 576 151 q 465 22 514 54 q 353 -19 417 -10 q 242 -19 296 -28 q 147 15 189 -11 q 79 83 106 40 q 51 186 53 125 l 190 186 q 204 147 190 161 q 239 124 218 132 q 284 115 260 117 q 329 118 308 114 q 372 131 351 122 q 411 157 393 139 q 444 205 429 175 q 467 282 458 235 q 348 234 414 244 q 219 243 282 224 q 108 312 157 263 q 42 442 58 361 m 311 661 q 246 645 275 661 q 198 603 217 629 q 172 541 179 576 q 174 468 165 506 q 215 395 185 421 q 281 362 244 369 q 356 365 318 354 q 422 402 394 375 q 459 472 449 429 q 451 572 469 515 q 424 619 440 601 q 388 645 407 636 q 349 658 369 654 q 311 661 329 661 z "},"\u0000":{"ha":0,"x_min":0,"x_max":0,"o":""},"\r":{"ha":314,"x_min":0,"x_max":0,"o":""}," ":{"ha":694,"x_min":0,"x_max":0,"o":""},"f":{"ha":576,"x_min":38,"x_max":539,"o":"m 539 556 l 176 556 l 176 415 l 483 415 l 483 276 l 176 276 l 176 0 l 38 0 l 38 694 l 539 694 l 539 556 l 539 556 z "},"g":{"ha":640,"x_min":36,"x_max":607,"o":"m 601 340 q 599 212 607 275 q 563 98 592 149 q 479 16 533 47 q 338 -15 425 -15 q 205 13 261 -15 q 111 91 149 42 q 55 206 74 140 q 36 344 36 271 q 55 469 36 407 q 111 582 74 531 q 204 666 149 633 q 333 703 260 699 q 434 690 386 706 q 519 642 482 674 q 578 565 556 611 q 601 463 600 519 l 463 463 q 428 538 463 510 q 339 564 393 567 q 219 499 264 560 q 175 344 175 439 q 182 269 175 308 q 207 198 189 231 q 256 144 225 165 q 338 124 288 124 q 381 128 360 124 q 419 145 401 133 q 447 177 436 157 q 458 229 457 197 l 371 229 l 371 340 l 601 340 z "},"h":{"ha":640,"x_min":42,"x_max":597,"o":"m 458 694 l 597 694 l 597 0 l 458 0 l 458 278 l 181 278 l 181 0 l 42 0 l 42 694 l 181 694 l 181 417 l 458 417 l 458 694 l 458 694 z "},"i":{"ha":211,"x_min":36,"x_max":175,"o":"m 175 0 l 36 0 l 36 694 l 175 694 l 175 0 l 175 0 z "},"j":{"ha":397,"x_min":36,"x_max":360,"o":"m 36 1 l 68 136 q 128 128 96 129 q 181 143 160 128 q 221 288 221 175 l 221 694 l 360 694 l 360 288 q 340 146 358 213 q 267 33 322 79 q 155 -10 217 -6 q 36 1 93 -14 z "},"k":{"ha":553,"x_min":32,"x_max":521,"o":"m 350 0 l 189 224 l 171 196 l 171 0 l 32 0 l 32 694 l 171 694 l 171 451 l 328 694 l 493 694 l 269 349 l 521 0 l 350 0 l 350 0 z "},"l":{"ha":439,"x_min":36,"x_max":401,"o":"m 175 138 l 401 138 l 401 0 l 36 0 l 36 694 l 175 694 l 175 138 l 175 138 z "},"m":{"ha":663,"x_min":36,"x_max":625,"o":"m 486 694 l 625 694 l 625 0 l 486 0 l 488 446 l 331 246 l 176 446 l 175 0 l 36 0 l 36 694 l 175 694 l 331 481 l 486 694 l 486 694 z "},"n":{"ha":640,"x_min":42,"x_max":597,"o":"m 597 694 l 597 0 l 457 0 l 181 436 l 181 0 l 42 0 l 42 694 l 181 694 l 458 257 l 458 694 l 597 694 l 597 694 z "},"o":{"ha":694,"x_min":31,"x_max":663,"o":"m 346 -14 q 210 19 269 -12 q 112 100 151 50 q 51 214 72 150 q 31 344 31 278 q 54 477 31 413 q 119 592 78 542 q 219 672 161 642 q 346 703 276 703 q 476 671 418 703 q 576 588 535 639 q 640 473 618 538 q 663 344 663 408 q 640 210 663 275 q 577 96 618 146 q 478 16 536 46 q 346 -14 419 -14 m 346 564 q 277 547 310 564 q 221 499 244 529 q 183 430 197 469 q 169 344 169 390 q 183 259 169 299 q 221 190 197 219 q 277 142 244 160 q 346 125 310 125 q 415 142 382 125 q 472 190 447 160 q 510 259 496 219 q 524 344 524 299 q 510 430 524 390 q 472 499 496 469 q 415 547 447 529 q 346 564 382 564 z "},"p":{"ha":626,"x_min":35,"x_max":590,"o":"m 379 694 q 498 660 451 694 q 567 574 544 625 q 589 461 590 522 q 563 349 588 400 q 492 263 539 297 q 375 228 444 228 l 174 228 l 174 0 l 35 0 l 35 694 l 379 694 m 374 367 q 431 397 411 367 q 453 462 451 426 q 436 527 454 497 q 379 557 418 557 l 174 557 l 174 367 l 374 367 z "},"q":{"ha":708,"x_min":32,"x_max":676,"o":"m 572 93 q 623 71 597 83 q 676 40 649 58 l 600 -75 q 536 -42 568 -54 q 475 -25 504 -31 q 419 -17 446 -19 q 371 -15 393 -15 q 235 11 300 -15 q 121 96 171 38 q 55 210 78 146 q 32 344 32 274 q 55 480 32 415 q 121 594 78 544 q 222 673 164 643 q 347 703 279 703 q 470 675 411 703 q 575 594 529 647 q 641 480 618 544 q 664 344 664 415 q 641 210 664 274 q 575 96 618 146 l 572 93 m 171 344 q 185 259 171 299 q 222 190 199 219 q 278 142 246 160 q 347 125 311 125 q 416 142 383 125 q 473 190 449 160 q 511 259 497 219 q 525 344 525 299 q 511 430 525 390 q 473 499 497 469 q 416 547 449 529 q 347 564 383 564 q 278 547 311 564 q 222 499 246 529 q 185 430 199 469 q 171 344 171 390 z "},"r":{"ha":622,"x_min":32,"x_max":589,"o":"m 507 278 q 544 210 533 249 q 558 126 556 171 l 558 0 l 419 0 l 419 126 q 392 197 419 167 q 321 228 365 228 l 171 228 l 171 0 l 32 0 l 32 694 l 375 694 q 462 678 422 694 q 530 631 501 661 q 574 557 558 600 q 589 461 589 514 q 568 361 589 408 q 507 278 547 314 m 171 367 q 236 367 208 367 q 287 368 264 368 q 330 368 310 368 q 369 368 350 368 q 428 396 406 371 q 450 461 450 421 q 434 526 450 497 q 375 557 418 554 l 171 557 l 171 367 z "},"s":{"ha":640,"x_min":29,"x_max":617,"o":"m 413 413 q 535 367 489 406 q 599 277 582 329 q 605 169 617 225 q 553 68 593 113 q 497 24 528 40 q 435 -1 467 8 q 375 -12 404 -10 q 325 -15 346 -15 q 210 -3 264 -15 q 115 39 156 8 q 52 119 75 69 q 29 247 29 169 l 168 247 q 179 183 168 207 q 211 145 190 158 q 261 128 232 132 q 325 124 290 124 q 400 133 367 124 q 449 160 433 143 q 466 197 464 178 q 460 233 468 217 q 433 261 451 250 q 390 275 415 272 q 291 283 342 281 q 186 300 240 285 q 79 363 121 317 q 43 430 54 392 q 36 508 32 468 q 60 583 40 547 q 113 646 79 619 q 325 704 188 707 q 424 689 376 703 q 508 646 471 675 q 567 570 544 617 q 589 460 589 524 l 450 460 q 439 509 450 489 q 410 542 428 529 q 370 560 393 554 q 324 565 347 565 q 240 557 269 567 q 197 538 211 547 q 176 510 182 525 q 174 479 171 494 q 190 451 178 464 q 221 433 201 439 q 317 419 268 422 q 413 413 367 417 z "},"t":{"ha":649,"x_min":39,"x_max":608,"o":"m 608 694 l 608 556 l 393 556 l 393 0 l 254 0 l 254 556 l 39 556 l 39 694 l 608 694 l 608 694 z "},"u":{"ha":594,"x_min":38,"x_max":556,"o":"m 556 213 q 517 92 556 142 q 422 15 479 42 q 297 -13 364 -11 q 172 9 229 -15 q 76 83 114 33 q 38 213 38 133 l 38 694 l 176 694 l 176 213 q 214 142 176 165 q 297 118 251 118 q 379 142 342 118 q 417 213 417 165 l 417 694 l 556 694 l 556 213 z "},"v":{"ha":649,"x_min":35,"x_max":614,"o":"m 468 694 l 614 694 l 392 0 l 257 0 l 35 694 l 181 694 l 324 246 l 468 694 l 468 694 z "},"w":{"ha":942,"x_min":33,"x_max":907,"o":"m 761 694 l 907 694 l 685 0 l 550 0 l 469 242 l 390 0 l 256 0 l 33 694 l 179 694 l 322 246 l 469 599 l 618 246 l 761 694 l 761 694 z "},"x":{"ha":658,"x_min":36,"x_max":621,"o":"m 621 694 l 410 347 l 619 0 l 457 0 l 328 213 l 199 0 l 36 0 l 247 347 l 36 694 l 199 694 l 328 481 l 458 694 l 621 694 l 621 694 z "},"y":{"ha":654,"x_min":35,"x_max":619,"o":"m 394 338 l 394 0 l 256 0 l 256 338 l 35 694 l 197 694 l 326 481 l 457 694 l 619 694 l 394 338 z "},"z":{"ha":636,"x_min":40,"x_max":594,"o":"m 594 556 l 226 139 l 594 139 l 594 0 l 40 0 l 40 138 l 40 139 l 410 556 l 40 556 l 40 694 l 594 694 l 594 556 z "},"A":{"ha":746,"x_min":43,"x_max":701,"o":"m 556 0 l 492 196 l 251 196 l 189 0 l 43 0 l 299 800 l 444 800 l 701 0 l 556 0 m 296 335 l 447 335 l 372 572 l 296 335 z "},"B":{"ha":626,"x_min":38,"x_max":589,"o":"m 507 436 q 563 368 536 413 q 589 249 589 324 q 529 75 589 143 q 463 25 506 50 q 347 0 419 0 l 38 0 l 38 800 l 343 800 q 489 742 431 800 q 535 670 519 711 q 550 582 550 629 q 507 436 550 499 m 176 661 l 176 489 l 338 489 q 377 500 363 489 q 399 526 392 511 q 409 556 407 540 q 411 583 411 572 q 395 637 411 614 q 343 661 379 660 l 176 661 m 347 139 q 423 169 396 139 q 450 249 450 199 q 448 277 450 260 q 435 310 446 294 q 402 338 425 326 q 336 350 379 350 l 176 350 l 176 139 l 347 139 z "},"C":{"ha":649,"x_min":39,"x_max":608,"o":"m 338 128 q 387 135 364 128 q 428 158 410 142 q 457 199 446 174 q 469 261 468 224 l 608 261 q 538 61 608 135 q 338 -11 468 -12 q 202 25 258 -11 q 109 119 146 61 q 56 252 72 178 q 39 403 39 326 q 56 540 39 469 q 108 669 72 610 q 199 767 143 728 q 333 811 254 807 q 438 797 389 814 q 525 748 488 781 q 585 669 563 715 q 608 564 607 622 l 469 564 q 431 646 469 617 q 339 672 392 675 q 262 642 293 669 q 212 574 231 614 q 185 488 193 535 q 178 403 178 442 q 183 318 178 365 q 206 228 189 271 q 255 157 224 186 q 338 128 286 128 z "},"D":{"ha":631,"x_min":42,"x_max":589,"o":"m 294 800 q 434 770 378 800 q 525 688 490 740 q 574 567 560 636 q 589 422 589 499 q 579 250 589 328 q 538 117 569 172 q 449 31 507 61 q 294 0 392 0 l 42 0 l 42 800 l 294 800 m 450 422 q 446 508 450 465 q 426 584 442 550 q 379 639 410 618 q 294 660 349 660 l 181 660 l 181 139 l 294 139 q 384 162 353 139 q 430 224 415 185 q 447 314 444 263 q 450 422 450 365 z "},"d":{"ha":649,"x_min":43,"x_max":606,"o":"m 606 364 q 594 213 606 281 q 549 99 582 146 q 460 27 517 53 q 317 0 404 1 l 43 0 l 43 694 l 318 694 q 539 608 472 694 q 606 364 606 522 m 317 138 q 392 153 363 138 q 438 199 421 169 q 460 271 454 229 q 467 364 467 313 q 460 438 467 403 q 438 500 454 474 q 394 542 422 526 q 318 557 365 557 l 182 557 l 182 138 l 317 138 z "},"E":{"ha":581,"x_min":43,"x_max":536,"o":"m 536 660 l 182 660 l 182 474 l 482 474 l 482 335 l 182 335 l 182 139 l 536 139 l 536 0 l 43 0 l 43 800 l 536 800 l 536 660 l 536 660 z "},"F":{"ha":581,"x_min":43,"x_max":536,"o":"m 536 660 l 182 660 l 182 474 l 482 474 l 482 335 l 182 335 l 182 0 l 43 0 l 43 800 l 536 800 l 536 660 l 536 660 z "},"G":{"ha":654,"x_min":40,"x_max":614,"o":"m 392 389 l 608 389 q 610 253 614 324 q 578 122 606 182 q 495 24 551 63 q 339 -15 439 -15 q 199 23 256 -15 q 106 121 142 61 q 56 254 71 181 q 40 399 40 328 q 56 535 40 463 q 108 667 72 607 q 199 768 143 728 q 335 811 256 808 q 438 797 389 814 q 525 748 488 781 q 585 669 563 715 q 608 564 607 622 l 469 564 q 433 644 469 613 q 340 672 397 675 q 263 642 294 671 q 213 573 232 614 q 187 485 194 532 q 179 399 179 438 q 185 314 179 361 q 209 224 192 267 q 258 153 226 182 q 339 124 289 124 q 434 151 397 124 q 469 250 471 179 l 392 250 l 392 389 z "},"H":{"ha":636,"x_min":44,"x_max":592,"o":"m 453 800 l 592 800 l 592 0 l 453 0 l 453 346 l 183 346 l 183 0 l 44 0 l 44 800 l 183 800 l 183 485 l 453 485 l 453 800 l 453 800 z "},"I":{"ha":213,"x_min":36,"x_max":175,"o":"m 36 800 l 175 800 l 175 -1 l 36 -1 l 36 800 l 36 800 z "},"J":{"ha":517,"x_min":39,"x_max":476,"o":"m 476 800 l 476 288 q 464 169 476 218 q 431 88 451 121 q 386 35 411 54 q 336 7 361 17 q 250 -9 293 -10 q 167 6 207 -8 q 94 49 128 21 q 39 118 61 78 l 160 186 q 214 133 182 147 q 282 135 246 119 q 311 161 300 143 q 328 201 322 179 q 335 246 333 222 q 338 288 338 269 l 338 800 l 476 800 z "},"K":{"ha":599,"x_min":35,"x_max":563,"o":"m 397 0 l 200 300 l 174 261 l 174 0 l 35 0 l 35 800 l 174 800 l 174 504 l 379 800 l 549 800 l 286 422 l 563 0 l 397 0 l 397 0 z "},"L":{"ha":517,"x_min":39,"x_max":478,"o":"m 178 139 l 478 139 l 478 0 l 39 0 l 39 800 l 178 800 l 178 139 l 178 139 z "},"M":{"ha":772,"x_min":46,"x_max":726,"o":"m 726 800 l 726 0 l 588 0 l 588 553 l 386 314 l 185 553 l 185 0 l 46 0 l 46 800 l 185 800 l 386 550 l 588 800 l 726 800 z "},"N":{"ha":640,"x_min":46,"x_max":593,"o":"m 454 800 l 593 800 l 593 0 l 454 0 l 185 504 l 185 0 l 46 0 l 46 800 l 185 800 l 454 294 l 454 800 l 454 800 z "},"O":{"ha":778,"x_min":39,"x_max":738,"o":"m 388 813 q 531 780 467 813 q 642 692 596 747 q 713 565 688 636 q 738 417 738 493 q 715 254 738 332 q 649 117 693 176 q 540 24 606 58 q 388 -11 475 -11 q 235 24 300 -11 q 126 119 169 60 q 60 256 82 179 q 39 415 39 333 q 63 560 39 489 q 132 686 88 631 q 241 776 176 742 q 388 813 306 811 m 388 128 q 482 152 442 128 q 548 216 522 176 q 586 308 574 256 q 599 417 599 360 q 585 512 599 465 q 544 594 571 558 q 478 652 517 631 q 388 674 439 674 q 297 651 336 674 q 232 591 258 628 q 192 508 206 554 q 178 415 178 463 q 188 312 178 363 q 222 221 199 261 q 286 155 246 181 q 388 128 326 129 z "},"P":{"ha":622,"x_min":36,"x_max":583,"o":"m 361 800 q 484 765 435 800 q 558 676 533 729 q 583 560 583 622 q 558 442 583 497 q 483 349 533 388 q 356 304 432 310 l 175 304 l 175 0 l 36 0 l 36 800 l 361 800 m 356 443 q 406 460 386 443 q 437 500 426 476 q 448 551 447 524 q 439 603 449 579 q 410 642 429 626 q 361 660 390 658 l 175 660 l 175 443 l 356 443 z "},"Q":{"ha":768,"x_min":36,"x_max":729,"o":"m 625 103 q 679 76 654 92 q 728 43 704 61 l 639 -64 q 522 -11 585 -21 q 386 -1 458 -1 q 233 33 299 -1 q 123 126 167 68 q 58 260 79 185 q 39 417 36 335 q 65 559 40 488 q 135 688 90 631 q 245 780 181 744 q 390 814 310 815 q 532 778 469 811 q 638 690 594 744 q 706 565 682 636 q 729 417 729 493 q 703 246 729 326 q 625 103 678 165 m 178 417 q 188 320 178 369 q 223 230 199 271 q 288 163 247 189 q 390 138 329 138 q 539 212 488 138 q 590 417 590 286 q 578 509 590 464 q 540 591 565 554 q 478 651 515 628 q 390 675 440 674 q 301 653 340 676 q 234 593 261 631 q 192 509 207 556 q 178 417 178 463 z "},"R":{"ha":626,"x_min":39,"x_max":586,"o":"m 506 358 q 545 292 532 328 q 558 207 558 256 l 558 0 l 419 0 l 419 207 q 394 275 419 244 q 326 306 368 306 l 178 306 l 178 0 l 39 0 l 39 800 l 364 800 q 456 781 415 800 q 526 731 497 763 q 571 654 556 699 q 586 560 586 610 q 565 444 586 494 q 506 358 544 393 m 178 444 l 357 444 q 403 455 385 444 q 431 482 421 465 q 444 519 440 499 q 447 560 447 540 q 428 631 447 600 q 364 661 410 661 l 178 661 l 178 444 z "},"S":{"ha":654,"x_min":39,"x_max":618,"o":"m 254 483 q 376 448 314 463 q 490 410 439 433 q 576 347 542 388 q 614 235 610 307 q 596 128 618 175 q 534 50 574 82 q 441 1 494 18 q 329 -15 388 -15 q 212 1 265 -15 q 120 49 158 17 q 60 132 82 82 q 39 250 39 182 l 178 250 q 219 151 178 178 q 329 124 260 124 q 383 129 356 124 q 431 148 410 135 q 465 182 453 161 q 475 235 478 203 q 451 272 472 258 q 392 297 429 286 q 308 319 356 307 q 204 353 260 332 q 88 438 131 381 q 44 565 44 494 q 68 673 44 626 q 131 751 92 719 q 222 798 171 782 q 329 814 274 814 q 435 797 386 814 q 518 747 483 779 q 572 667 553 714 q 589 563 590 621 l 450 563 q 439 617 450 596 q 410 651 428 639 q 369 669 392 664 q 326 675 347 675 q 278 669 303 675 q 232 650 253 663 q 197 617 211 638 q 183 567 183 596 q 192 533 183 547 q 210 508 200 518 q 233 492 221 499 q 254 483 246 486 z "},"T":{"ha":649,"x_min":39,"x_max":608,"o":"m 608 800 l 608 661 l 393 661 l 393 0 l 254 0 l 254 661 l 39 661 l 39 800 l 608 800 l 608 800 z "},"U":{"ha":599,"x_min":40,"x_max":558,"o":"m 558 235 q 520 94 558 150 q 424 10 482 38 q 299 -17 367 -18 q 174 12 232 -17 q 78 98 117 40 q 40 240 40 156 q 41 517 40 379 q 40 800 42 656 l 179 800 q 181 692 181 747 q 181 571 181 636 q 180 425 181 506 q 179 240 179 344 q 197 175 179 201 q 242 135 215 149 q 299 122 268 122 q 358 135 331 122 q 402 172 385 147 q 419 235 419 197 l 419 800 l 558 800 l 558 235 z "},"V":{"ha":732,"x_min":36,"x_max":694,"o":"m 549 800 l 694 800 l 438 0 l 292 0 l 36 800 l 182 800 l 365 228 l 549 800 l 549 800 z "},"W":{"ha":1047,"x_min":40,"x_max":1007,"o":"m 861 800 l 1007 800 l 750 0 l 604 0 l 524 254 l 442 0 l 296 0 l 40 800 l 186 800 l 369 228 l 524 607 l 678 228 l 861 800 l 861 800 z "},"X":{"ha":694,"x_min":39,"x_max":654,"o":"m 654 800 l 426 400 l 647 0 l 489 0 l 346 258 l 199 0 l 39 0 l 267 400 l 46 800 l 204 800 l 347 542 l 493 800 l 654 800 l 654 800 z "},"Y":{"ha":682,"x_min":36,"x_max":644,"o":"m 485 801 l 644 801 l 410 401 l 410 0 l 271 0 l 271 401 l 36 801 l 194 801 l 338 543 l 485 801 l 485 801 z "},"Z":{"ha":622,"x_min":40,"x_max":581,"o":"m 210 139 l 581 139 l 581 0 l 40 0 l 40 139 l 410 660 l 40 660 l 40 799 l 581 799 l 581 660 l 210 139 z "},"˘":{"ha":368,"x_min":46,"x_max":322,"o":"m 322 857 q 288 773 322 804 q 200 739 253 742 l 168 739 q 82 771 117 739 q 46 857 47 803 l 121 857 q 168 814 121 814 l 200 814 q 247 857 247 814 l 322 857 z "},"˙":{"ha":178,"x_min":35,"x_max":143,"o":"m 89 747 q 51 763 67 747 q 35 801 35 779 q 51 839 35 824 q 89 854 67 854 q 127 839 111 854 q 143 801 143 824 q 127 763 143 779 q 89 747 111 747 z "},"˚":{"ha":178,"x_min":35,"x_max":143,"o":"m 89 743 q 51 759 67 743 q 35 797 35 775 q 51 835 35 819 q 89 850 67 850 q 127 835 111 850 q 143 797 143 819 q 127 759 143 775 q 89 743 111 743 m 89 813 q 74 797 74 813 q 89 782 74 782 q 104 797 104 782 q 89 813 104 813 z "},"˝":{"ha":414,"x_min":35,"x_max":378,"o":"m 243 857 l 133 738 l 35 738 l 143 857 l 243 857 m 378 857 l 268 738 l 171 738 l 278 857 l 378 857 z "},"˛":{"ha":314,"x_min":29,"x_max":281,"o":"m 281 -189 q 226 -206 257 -199 q 164 -214 196 -214 q 91 -199 125 -214 q 42 -146 57 -185 q 36 -91 29 -117 q 62 -45 43 -65 q 108 -15 81 -25 q 164 -6 135 -4 l 164 -81 q 126 -88 144 -79 q 113 -121 107 -97 q 126 -136 114 -132 q 156 -140 139 -140 q 207 -133 179 -140 q 253 -121 235 -125 l 281 -189 z "},"ˇ":{"ha":324,"x_min":40,"x_max":283,"o":"m 164 740 q 104 808 131 778 q 62 857 81 835 q 40 882 43 879 l 128 882 q 134 869 128 879 q 147 847 140 858 l 167 817 l 203 882 l 283 882 q 263 856 281 878 q 225 807 246 833 q 169 740 200 776 l 164 740 z "},"ı":{"ha":282,"x_min":38,"x_max":244,"o":"m 244 694 l 244 0 l 106 0 l 106 556 l 38 556 l 38 694 l 244 694 z "},"⁄":{"ha":528,"x_min":33,"x_max":494,"o":"m 33 0 l 413 896 l 494 896 l 115 0 l 33 0 z "},"ﬁ":{"ha":674,"x_min":44,"x_max":628,"o":"m 628 556 l 183 556 l 183 417 l 582 417 l 582 414 l 582 0 l 443 0 l 443 278 l 183 278 l 183 0 l 44 0 l 44 694 l 628 694 l 628 556 l 628 556 z "},"ﬂ":{"ha":1064,"x_min":47,"x_max":1017,"o":"m 715 139 l 1017 139 l 1017 0 l 576 0 l 576 661 l 186 661 l 186 475 l 486 475 l 486 336 l 186 336 l 186 0 l 47 0 l 47 801 l 715 801 l 715 139 l 715 139 z "},"@":{"ha":878,"x_min":38,"x_max":839,"o":"m 767 617 q 820 506 801 568 q 839 378 839 444 q 823 264 839 319 q 771 161 807 208 q 710 106 747 131 q 628 82 672 82 q 608 84 617 82 q 588 89 599 86 q 514 158 536 107 q 389 117 461 117 q 323 129 356 117 q 267 169 290 142 q 233 230 243 196 q 224 301 224 264 q 232 371 224 336 q 257 438 240 406 q 297 497 274 469 q 349 540 319 524 q 397 561 372 556 q 443 567 421 567 q 504 553 483 567 l 504 568 l 579 568 l 579 213 q 611 160 579 171 q 656 161 629 153 q 710 206 682 169 q 751 288 739 243 q 764 375 764 332 q 747 486 764 433 q 704 574 729 539 q 602 663 664 632 q 460 693 540 693 q 439 692 450 693 q 417 690 428 692 q 307 656 357 683 q 219 590 257 628 q 156 506 181 551 q 121 417 131 460 q 117 378 118 399 q 115 336 115 357 q 122 251 115 294 q 146 167 129 207 q 189 93 163 126 q 254 39 215 60 q 329 11 290 19 q 400 3 368 3 q 487 14 450 3 q 533 33 524 25 l 581 -25 q 495 -59 542 -49 q 400 -69 449 -69 q 303 -58 351 -69 q 218 -28 254 -47 q 86 114 135 19 q 38 325 38 208 q 49 431 38 375 q 97 549 63 492 q 179 651 131 606 q 288 726 228 696 q 413 764 347 756 q 433 765 422 765 q 454 765 444 765 q 626 731 543 765 q 767 617 708 696 m 322 218 q 390 190 350 190 q 460 211 426 190 q 504 268 493 232 l 504 471 q 443 496 476 496 q 382 476 417 496 q 348 444 364 464 q 320 402 332 425 q 301 354 308 379 q 294 306 294 329 q 324 218 294 256 l 322 218 z "},"[":{"ha":278,"x_min":47,"x_max":231,"o":"m 122 783 l 122 -46 l 231 -46 l 231 -122 l 47 -122 l 47 857 l 231 857 l 231 783 l 122 783 z "},"]":{"ha":286,"x_min":51,"x_max":235,"o":"m 161 -47 l 161 782 l 51 782 l 51 857 l 235 857 l 235 -122 l 51 -122 l 51 -47 l 161 -47 z "},"\\":{"ha":556,"x_min":47,"x_max":508,"o":"m 129 896 l 508 0 l 426 0 l 47 896 l 129 896 z "},"^":{"ha":324,"x_min":47,"x_max":276,"o":"m 215 754 l 163 817 q 136 785 149 801 q 110 754 124 769 l 47 754 l 136 857 l 189 857 l 276 754 l 215 754 z "},"_":{"ha":492,"x_min":53,"x_max":438,"o":"m 438 -64 l 438 -137 l 53 -137 l 53 -64 l 438 -64 z "},"`":{"ha":286,"x_min":46,"x_max":239,"o":"m 131 738 l 46 857 l 156 857 l 239 738 l 131 738 z "},"€":{"ha":710,"x_min":19,"x_max":689,"o":"m 689 169 q 648 78 675 121 q 583 5 621 36 q 497 -44 544 -26 q 396 -61 450 -61 q 276 -37 328 -61 q 188 27 225 -14 q 125 122 150 68 q 85 238 100 176 l 19 238 l 19 307 l 76 307 q 72 362 72 335 q 75 417 72 389 l 19 417 l 19 486 l 86 486 q 126 590 100 539 q 192 680 153 640 q 282 744 231 719 q 396 768 333 768 q 483 753 442 768 q 560 713 525 739 q 624 651 596 686 q 671 574 653 615 l 515 574 q 462 613 492 599 q 396 628 432 628 q 287 587 331 628 q 222 486 243 546 l 553 486 l 553 417 l 204 417 q 198 357 197 386 q 204 307 199 328 l 553 307 l 553 238 l 217 238 q 240 177 225 206 q 278 127 256 149 q 329 92 300 106 q 396 79 358 79 q 547 169 497 79 l 689 169 z "},"b":{"ha":626,"x_min":35,"x_max":592,"o":"m 521 365 q 572 297 553 339 q 592 207 592 256 q 574 118 592 157 q 524 53 556 79 q 449 14 492 28 q 356 0 406 0 l 35 0 l 35 694 l 363 694 q 442 678 406 694 q 504 635 478 663 q 545 570 531 607 q 560 490 560 533 q 521 365 560 421 m 174 557 l 174 417 l 343 417 q 385 425 369 417 q 408 445 400 433 q 419 469 417 457 q 421 490 421 482 q 406 536 421 515 q 363 557 392 557 l 174 557 m 368 138 q 426 154 399 138 q 453 207 453 171 q 432 259 453 240 q 388 278 411 278 l 174 278 l 174 138 l 368 138 z "},"c":{"ha":649,"x_min":40,"x_max":607,"o":"m 343 -15 q 208 15 265 -15 q 114 94 151 44 q 58 210 76 144 q 40 346 40 275 q 60 477 40 414 q 119 590 81 540 q 213 669 157 639 q 339 703 268 700 q 444 687 394 704 q 529 637 493 669 q 586 559 565 604 q 607 460 607 514 l 468 460 q 428 540 465 513 q 344 564 392 567 q 277 546 307 563 q 225 500 247 529 q 191 432 203 471 q 179 346 179 393 q 188 264 179 304 q 217 192 197 224 q 267 142 236 161 q 343 124 299 124 q 437 157 406 124 q 468 249 468 190 l 607 249 q 588 131 607 181 q 535 49 569 82 q 451 1 500 17 q 343 -15 403 -15 z "},"a":{"ha":663,"x_min":42,"x_max":621,"o":"m 621 0 l 475 0 l 433 128 l 229 128 l 188 0 l 42 0 l 264 694 l 399 694 l 621 0 m 389 267 l 331 449 l 272 267 l 389 267 z "},"":{"ha":746,"x_min":-651,"x_max":701,"o":"m 493 196 l 243 196 q 197 70 219 126 q 160 -22 175 14 q 101 -117 140 -67 q 1 -207 61 -168 q -139 -265 -58 -246 q -321 -267 -219 -285 q -503 -185 -429 -247 q -615 -41 -578 -124 q -648 135 -651 42 q -597 313 -644 229 q -518 409 -565 368 q -407 471 -471 450 q -288 486 -353 489 q -166 457 -224 483 q -69 378 -108 431 q -26 246 -29 326 q -40 163 -24 196 q -80 114 -56 131 q -133 95 -104 97 q -187 104 -162 93 q -228 138 -212 115 q -243 194 -244 161 q -203 214 -215 197 q -191 253 -190 231 q -204 299 -192 275 q -241 338 -217 322 q -300 359 -265 354 q -378 350 -335 364 q -471 285 -436 331 q -518 183 -506 240 q -522 64 -531 126 q -485 -53 -512 1 q -410 -146 -457 -107 q -300 -196 -364 -185 q -171 -187 -226 -208 q -76 -129 -115 -167 q -10 -47 -36 -92 q 33 35 17 -1 q 81 151 53 78 q 138 308 108 224 q 195 478 167 392 q 247 634 224 564 q 284 750 269 704 q 300 800 299 796 l 446 800 l 701 0 l 556 0 l 493 196 m 449 335 l 371 575 q 333 459 353 521 q 292 335 313 397 l 449 335 z "},"":{"ha":581,"x_min":43,"x_max":1018,"o":"m 725 1046 q 842 1032 789 1050 q 935 978 896 1014 q 996 892 974 943 q 1018 779 1018 842 q 982 640 1018 706 q 885 533 946 574 q 831 504 864 518 q 758 492 799 490 q 698 506 725 493 q 655 540 671 519 q 635 589 639 561 q 644 647 632 617 q 708 633 668 636 q 788 643 747 631 q 865 688 829 656 q 917 779 900 719 q 919 849 925 810 q 893 923 914 889 q 834 978 872 957 q 739 994 796 1000 q 662 968 692 990 q 600 911 632 946 q 526 831 568 876 q 413 735 483 786 q 309 686 368 703 q 182 663 250 669 l 182 474 l 482 474 l 482 335 l 182 335 l 182 0 l 43 0 l 43 800 l 144 800 q 272 816 218 803 q 365 848 325 829 q 437 890 406 867 q 497 938 468 914 q 544 974 519 956 q 595 1008 568 993 q 654 1033 622 1022 q 725 1046 686 1043 z "},"":{"ha":213,"x_min":-494,"x_max":175,"o":"m -162 1083 q -108 1082 -139 1083 q -44 1074 -78 1081 q 24 1050 -11 1067 q 90 1004 58 1033 q 136 947 119 976 q 162 888 153 917 q 173 834 171 858 q 175 796 175 810 l 175 0 l 36 0 l 36 796 q -7 943 36 890 q -157 996 -50 996 q -247 979 -203 996 q -326 931 -290 963 q -384 853 -361 899 q -408 751 -407 808 q -399 664 -411 706 q -362 590 -386 622 q -303 540 -337 558 q -226 524 -268 521 q -158 555 -186 525 q -123 622 -131 585 q -131 695 -115 660 q -193 746 -147 731 q -115 773 -151 772 q -56 753 -79 774 q -27 691 -33 732 q -39 594 -21 650 q -102 516 -53 551 q -231 481 -151 481 q -333 501 -285 481 q -417 558 -381 522 q -494 751 -494 636 q -468 881 -494 821 q -396 987 -442 942 q -290 1058 -350 1032 q -162 1083 -229 1083 z "},"e":{"ha":581,"x_min":39,"x_max":540,"o":"m 540 557 l 178 557 l 178 417 l 485 417 l 485 278 l 178 278 l 178 138 l 540 138 l 540 0 l 39 0 l 39 694 l 540 694 l 540 557 l 540 557 z "}}}
